HIERARCHY
ROOT joint_Root
{
	OFFSET 0.0 0.0 0.0
	CHANNELS 6 Xposition Yposition Zposition Zrotation Xrotation Yrotation 
	JOINT Hips
	{
		OFFSET 4.5925 91.4895 -427.239
		CHANNELS 6 Xposition Yposition Zposition Zrotation Xrotation Yrotation 
		JOINT Spine
		{
			OFFSET 15.7357 0.0 0.0
			CHANNELS 6 Xposition Yposition Zposition Zrotation Xrotation Yrotation 
			JOINT Chest
			{
				OFFSET 8.98455 -0.406207 0.0
				CHANNELS 6 Xposition Yposition Zposition Zrotation Xrotation Yrotation 
				JOINT Neck
				{
					OFFSET 16.3773 0.0 0.0
					CHANNELS 6 Xposition Yposition Zposition Zrotation Xrotation Yrotation 
					JOINT Head
					{
						OFFSET 6.45672 0.0 0.0
						CHANNELS 6 Xposition Yposition Zposition Zrotation Xrotation Yrotation 
						End Site
						{
							OFFSET 0.0 0.0 0.0
						}
					}
				}
				JOINT Shoulder_L
				{
					OFFSET 12.9942 -0.242716 4.98039
					CHANNELS 6 Xposition Yposition Zposition Zrotation Xrotation Yrotation 
					JOINT UpperArm_L
					{
						OFFSET 5.34809 0.0 0.0
						CHANNELS 6 Xposition Yposition Zposition Zrotation Xrotation Yrotation 
						JOINT LowerArm_L
						{
							OFFSET 24.3286 1.87007e-05 0.0
							CHANNELS 6 Xposition Yposition Zposition Zrotation Xrotation Yrotation 
							JOINT Hand_L
							{
								OFFSET 22.2916 0.0 0.0
								CHANNELS 6 Xposition Yposition Zposition Zrotation Xrotation Yrotation 
								End Site
								{
									OFFSET 0.0 0.0 0.0
								}
							}
						}
					}
				}
				JOINT Shoulder_R
				{
					OFFSET 12.9945 -0.242716 -4.98039
					CHANNELS 6 Xposition Yposition Zposition Zrotation Xrotation Yrotation 
					JOINT UpperArm_R
					{
						OFFSET -5.34813 0.0 0.0
						CHANNELS 6 Xposition Yposition Zposition Zrotation Xrotation Yrotation 
						JOINT LowerArm_R
						{
							OFFSET -24.3289 0.000322201 0.0
							CHANNELS 6 Xposition Yposition Zposition Zrotation Xrotation Yrotation 
							JOINT Hand_R
							{
								OFFSET -22.2915 -0.000108084 0.0
								CHANNELS 6 Xposition Yposition Zposition Zrotation Xrotation Yrotation 
								End Site
								{
									OFFSET 0.0 0.0 0.0
								}
							}
						}
					}
				}
			}
		}
		JOINT UpperLeg_L
		{
			OFFSET -2.19248 -6.46944 0.0
			CHANNELS 6 Xposition Yposition Zposition Zrotation Xrotation Yrotation 
			JOINT LowerLeg_L
			{
				OFFSET 39.0811 0.0 -1.23785e-05
				CHANNELS 6 Xposition Yposition Zposition Zrotation Xrotation Yrotation 
				JOINT Foot_L
				{
					OFFSET 40.9854 0.0 -1.26872e-05
					CHANNELS 6 Xposition Yposition Zposition Zrotation Xrotation Yrotation 
					JOINT Toes_L
					{
						OFFSET 11.7543 0.0 0.0
						CHANNELS 6 Xposition Yposition Zposition Zrotation Xrotation Yrotation 
						End Site
						{
							OFFSET 0.0 0.0 0.0
						}
					}
				}
			}
		}
		JOINT UpperLeg_R
		{
			OFFSET -2.19251 6.46944 0.0
			CHANNELS 6 Xposition Yposition Zposition Zrotation Xrotation Yrotation 
			JOINT LowerLeg_R
			{
				OFFSET -39.0811 -0.00228153 -0.0401928
				CHANNELS 6 Xposition Yposition Zposition Zrotation Xrotation Yrotation 
				JOINT Foot_R
				{
					OFFSET -40.9854 0.0 0.0
					CHANNELS 6 Xposition Yposition Zposition Zrotation Xrotation Yrotation 
					JOINT Toes_R
					{
						OFFSET -11.7543 0.0 0.0
						CHANNELS 6 Xposition Yposition Zposition Zrotation Xrotation Yrotation 
						End Site
						{
							OFFSET 0.0 0.0 0.0
						}
					}
				}
			}
		}
	}
}
MOTION
Frames:	7
Frame Time:	0.0333333
0.000000 0.000000 0.000000 0.000000 0.000000 -0.000000 -1.307280 89.009400 -522.561000 89.990300 -5.433370 2.468290 15.735700 0.000005 -0.000001 93.124500 80.667900 -93.269100 8.984550 -0.406207 -0.000000 10.872800 1.005940 -0.384804 16.377300 -0.000001 -0.000001 2.360260 -3.475460 2.092890 6.456720 -0.000001 -0.000000 -1.669930 -2.667770 -0.533908 12.994200 -0.242716 4.980390 -90.973300 3.361280 -73.840700 5.348090 -0.000007 -0.000001 -66.158900 33.489500 -15.545400 24.328600 0.000019 0.000005 9.123340 19.342100 -25.871600 22.291600 -0.000001 0.000005 11.290000 5.256020 1.278830 12.994500 -0.242716 -4.980390 88.809900 8.922080 -82.371100 -5.348130 -0.000001 -0.000004 -55.801400 31.625200 -22.789800 -24.328900 0.000322 -0.000009 0.590063 1.131820 -27.580800 -22.291500 -0.000108 -0.000004 16.509800 5.401350 -2.981460 -2.192480 -6.469440 -0.000000 179.562000 -7.908590 -23.582200 39.081100 -0.000007 -0.000012 -0.210628 0.258479 39.176100 40.985400 -0.000006 -0.000013 1.583540 -0.599490 -64.407300 11.754300 -0.000000 0.000003 0.000743 0.013612 -16.024800 -2.192510 6.469440 -0.000001 176.462000 20.773400 176.619000 -39.081100 -0.002282 -0.040193 0.010002 -0.009462 35.351000 -40.985400 0.000008 0.000006 6.930650 4.681020 -78.741900 -11.754300 -0.000006 -0.000006 -0.003724 -0.048537 -18.547300
0.000000 0.000000 0.000000 0.000000 0.000000 -0.000000 -0.885650 88.531600 -519.950000 90.594300 -6.759820 2.479950 15.735700 0.000005 -0.000001 93.020900 80.758700 -93.622500 8.984550 -0.406207 -0.000000 10.697200 0.951768 -1.291700 16.377300 -0.000001 -0.000001 2.283970 -3.364210 2.147050 6.456720 -0.000001 -0.000000 -1.418130 -2.436510 -0.409242 12.994200 -0.242716 4.980390 -91.044400 3.607830 -73.843500 5.348090 -0.000007 -0.000001 -67.051000 33.843600 -14.352100 24.328600 0.000019 0.000005 7.675890 21.585600 -20.122000 22.291600 -0.000001 0.000005 10.090700 5.229960 1.958110 12.994500 -0.242716 -4.980390 88.714500 9.284960 -82.081800 -5.348130 -0.000001 -0.000004 -55.772000 31.592500 -21.671600 -24.328900 0.000322 -0.000009 0.732946 1.456170 -26.758800 -22.291500 -0.000108 -0.000004 16.772000 5.402660 -3.024060 -2.192480 -6.469440 -0.000000 178.952000 -6.692770 -22.975500 39.081100 -0.000007 -0.000012 -0.278825 0.314035 41.601800 40.985400 -0.000006 -0.000013 0.933911 -2.815130 -66.756300 11.754300 -0.000000 0.000003 0.000374 0.008131 -16.242500 -2.192510 6.469440 -0.000001 175.145000 18.555500 177.067000 -39.081100 -0.002282 -0.040193 0.011824 -0.011158 37.427400 -40.985400 0.000008 0.000006 6.103620 3.764220 -79.549000 -11.754300 -0.000006 -0.000006 -0.005191 -0.063306 -19.149000
0.000000 0.000000 0.000000 0.000000 0.000000 -0.000000 -0.544350 88.249400 -517.463000 90.402800 -7.848460 2.450050 15.735700 0.000005 -0.000001 93.006200 80.851200 -93.801100 8.984550 -0.406207 -0.000000 10.514500 0.933943 -1.674880 16.377300 -0.000001 -0.000001 2.142100 -3.157480 2.072570 6.456720 -0.000001 -0.000000 -1.199420 -2.252500 -0.276864 12.994200 -0.242716 4.980390 -91.074000 3.699080 -73.797000 5.348090 -0.000007 -0.000001 -68.177100 33.424300 -12.831200 24.328600 0.000019 0.000005 6.376490 23.627500 -15.583400 22.291600 -0.000001 0.000005 9.554760 5.200030 2.714440 12.994500 -0.242716 -4.980390 88.614900 9.611970 -81.760600 -5.348130 -0.000001 -0.000004 -56.499600 31.075000 -20.009700 -24.328900 0.000322 -0.000009 0.902862 1.879460 -25.691600 -22.291500 -0.000108 -0.000004 17.111700 5.398920 -2.905150 -2.192480 -6.469440 -0.000000 178.924000 -6.844060 -21.957900 39.081100 -0.000007 -0.000012 -0.336797 0.357493 43.293300 40.985400 -0.000006 -0.000013 0.762099 -3.776770 -69.416600 11.754300 -0.000000 0.000003 -0.000230 -0.002083 -16.655800 -2.192510 6.469440 -0.000001 174.871000 16.677800 175.857000 -39.081100 -0.002282 -0.040193 0.033222 -0.033359 41.916800 -40.985400 0.000008 0.000006 5.579020 2.539220 -77.869800 -11.754300 -0.000006 -0.000006 -0.017498 -0.153015 -22.820400
0.000000 0.000000 0.000000 0.000000 0.000000 -0.000000 -0.192548 88.192400 -515.163000 90.060600 -8.551170 2.713070 15.735700 0.000005 -0.000001 92.425600 80.730200 -93.293600 8.984550 -0.406207 -0.000000 10.764000 0.756327 -1.806440 16.377300 -0.000001 -0.000001 1.851500 -2.948060 1.890380 6.456720 -0.000001 -0.000000 -1.368040 -2.040690 -0.309565 12.994200 -0.242716 4.980390 -91.027300 3.537670 -73.796800 5.348090 -0.000007 -0.000001 -69.328400 32.397300 -11.477800 24.328600 0.000019 0.000005 5.503380 25.044600 -12.822300 22.291600 -0.000001 0.000005 9.339860 5.170760 3.442660 12.994500 -0.242716 -4.980390 88.643100 9.447010 -81.788200 -5.348130 -0.000001 -0.000004 -58.355800 29.352800 -17.888100 -24.328900 0.000322 -0.000009 0.884445 1.931420 -24.639000 -22.291500 -0.000108 -0.000004 17.401400 5.390270 -2.623870 -2.192480 -6.469440 -0.000000 179.074000 -7.787620 -20.139300 39.081100 -0.000007 -0.000012 -0.361698 0.376937 43.818800 40.985400 -0.000006 -0.000013 0.977063 -3.706830 -71.494000 11.754300 -0.000000 0.000003 -0.000320 -0.002744 -16.679600 -2.192510 6.469440 -0.000001 174.884000 15.022700 173.017000 -39.081100 -0.002282 -0.040193 0.073090 -0.061020 48.855400 -40.985400 0.000008 0.000006 5.580360 0.878352 -73.211000 -11.754300 -0.000006 -0.000006 -0.043665 -0.274401 -27.856000
0.000000 0.000000 0.000000 0.000000 0.000000 -0.000000 0.138420 88.243800 -513.037000 89.700600 -9.168520 3.017570 15.735700 0.000005 -0.000001 92.087600 80.517800 -92.978900 8.984550 -0.406207 -0.000000 11.192000 0.658900 -1.846290 16.377300 -0.000001 -0.000001 1.588470 -2.754810 1.708650 6.456720 -0.000001 -0.000000 -1.716620 -1.850610 -0.400471 12.994200 -0.242716 4.980390 -90.934800 3.230450 -73.851800 5.348090 -0.000007 -0.000001 -69.933200 31.599800 -10.759000 24.328600 0.000019 0.000005 4.945370 25.236100 -11.472300 22.291600 -0.000001 0.000005 9.082610 5.156430 3.789140 12.994500 -0.242716 -4.980390 88.676100 9.217610 -81.790200 -5.348130 -0.000001 -0.000004 -59.887000 27.813000 -16.158100 -24.328900 0.000322 -0.000009 0.719890 1.660610 -23.469400 -22.291500 -0.000108 -0.000004 17.189100 5.385520 -2.472810 -2.192480 -6.469440 -0.000000 179.270000 -8.339760 -18.028600 39.081100 -0.000007 -0.000012 -0.382556 0.400959 43.655300 40.985400 -0.000006 -0.000013 1.083150 -3.903920 -73.118000 11.754300 -0.000000 0.000003 -0.000342 -0.002902 -16.685200 -2.192510 6.469440 -0.000001 175.178000 13.125400 169.061000 -39.081100 -0.002282 -0.040193 0.108478 -0.069605 56.524100 -40.985400 0.000008 0.000006 4.191390 -1.101830 -67.277600 -11.754300 -0.000006 -0.000006 -0.040789 -0.263239 -27.388700
0.000000 0.000000 0.000000 0.000000 0.000000 -0.000000 0.316897 88.383700 -511.026000 89.344500 -9.509090 3.162420 15.735700 0.000005 -0.000001 91.401500 80.366100 -92.265200 8.984550 -0.406207 -0.000000 11.500200 0.439362 -1.771040 16.377300 -0.000001 -0.000001 1.495680 -2.584140 1.548230 6.456720 -0.000001 -0.000000 -1.859590 -1.625760 -0.577276 12.994200 -0.242716 4.980390 -90.921900 3.183260 -73.839400 5.348090 -0.000007 -0.000001 -69.507500 31.392400 -10.628800 24.328600 0.000019 0.000005 4.848520 24.841100 -11.415200 22.291600 -0.000001 0.000005 9.064920 5.154930 3.825590 12.994500 -0.242716 -4.980390 88.664100 9.267900 -81.760600 -5.348130 -0.000001 -0.000004 -60.538400 27.144500 -14.970000 -24.328900 0.000322 -0.000009 0.639483 1.573560 -22.154700 -22.291500 -0.000108 -0.000004 16.868800 5.383050 -2.394220 -2.192480 -6.469440 -0.000000 179.582000 -9.074230 -15.893200 39.081100 -0.000007 -0.000012 -0.387133 0.416116 42.934400 40.985400 -0.000006 -0.000013 1.265670 -3.631600 -74.350400 11.754300 -0.000000 0.000003 -0.000361 -0.003034 -16.689900 -2.192510 6.469440 -0.000001 175.893000 12.344300 165.289000 -39.081100 -0.002282 -0.040193 0.124666 -0.063288 62.482000 -40.985400 0.000008 0.000006 4.450690 -4.182130 -62.796900 -11.754300 -0.000006 -0.000006 -0.016164 -0.145027 -22.492100
0.000000 0.000000 0.000000 0.000000 0.000000 -0.000000 0.363339 88.601600 -509.150000 88.822300 -9.416820 2.973220 15.735700 0.000005 -0.000001 90.542100 80.327100 -91.268700 8.984550 -0.406207 -0.000000 11.580400 0.157401 -1.468640 16.377300 -0.000001 -0.000001 1.482320 -2.485080 1.507680 6.456720 -0.000001 -0.000000 -1.819060 -1.465800 -0.720724 12.994200 -0.242716 4.980390 -90.963100 3.312640 -73.779500 5.348090 -0.000007 -0.000001 -68.371200 31.389700 -11.122500 24.328600 0.000019 0.000005 5.251960 24.800400 -12.360700 22.291600 -0.000001 0.000005 9.176830 5.163110 3.628240 12.994500 -0.242716 -4.980390 88.574200 9.534580 -81.454300 -5.348130 -0.000001 -0.000004 -60.482000 27.340500 -14.057100 -24.328900 0.000322 -0.000009 0.808363 2.091730 -21.163400 -22.291500 -0.000108 -0.000004 16.484300 5.378060 -2.237510 -2.192480 -6.469440 -0.000000 -179.902000 -9.376710 -14.000600 39.081100 -0.000007 -0.000012 -0.391565 0.437735 41.814300 40.985400 -0.000006 -0.000013 1.384070 -3.311200 -75.231800 11.754300 -0.000000 0.000003 -0.000379 -0.003165 -16.694500 -2.192510 6.469440 -0.000001 177.084000 12.460700 162.408000 -39.081100 -0.002282 -0.040193 0.114473 -0.051988 64.964600 -40.985400 0.000008 0.000006 4.682920 -6.086850 -63.293600 -11.754300 -0.000006 -0.000006 -0.014804 -0.136577 -22.145100
